<svg width="45" height="36" viewBox="0 0 45 36" fill="none" xmlns="http://www.w3.org/2000/svg">
<path d="M3.375 0C1.51172 0 0 1.51172 0 3.375V25.875C0 27.7383 1.51172 29.25 3.375 29.25H4.5C4.5 32.9766 7.52344 36 11.25 36C14.9766 36 18 32.9766 18 29.25H27C27 32.9766 30.0234 36 33.75 36C37.4766 36 40.5 32.9766 40.5 29.25H42.75C43.9945 29.25 45 28.2445 45 27C45 25.7555 43.9945 24.75 42.75 24.75V20.25V18V16.6852C42.75 15.4898 42.2789 14.3438 41.4352 13.5L36 8.06484C35.1562 7.22109 34.0102 6.75 32.8148 6.75H29.25V3.375C29.25 1.51172 27.7383 0 25.875 0H3.375ZM29.25 11.25H32.8148L38.25 16.6852V18H29.25V11.25ZM7.875 29.25C7.875 28.3549 8.23058 27.4964 8.86351 26.8635C9.49645 26.2306 10.3549 25.875 11.25 25.875C12.1451 25.875 13.0036 26.2306 13.6365 26.8635C14.2694 27.4964 14.625 28.3549 14.625 29.25C14.625 30.1451 14.2694 31.0036 13.6365 31.6365C13.0036 32.2694 12.1451 32.625 11.25 32.625C10.3549 32.625 9.49645 32.2694 8.86351 31.6365C8.23058 31.0036 7.875 30.1451 7.875 29.25ZM33.75 25.875C34.6451 25.875 35.5035 26.2306 36.1365 26.8635C36.7694 27.4964 37.125 28.3549 37.125 29.25C37.125 30.1451 36.7694 31.0036 36.1365 31.6365C35.5035 32.2694 34.6451 32.625 33.75 32.625C32.8549 32.625 31.9964 32.2694 31.3635 31.6365C30.7306 31.0036 30.375 30.1451 30.375 29.25C30.375 28.3549 30.7306 27.4964 31.3635 26.8635C31.9964 26.2306 32.8549 25.875 33.75 25.875Z" fill="#2563EB"/>
</svg>
