<?xml version="1.0" encoding="UTF-8"?>
<svg id="Capa_1" data-name="Capa 1" xmlns="http://www.w3.org/2000/svg" version="1.1" viewBox="0 0 1080 1080">
  <defs>
    <style>
      .cls-1 {
        fill: #0061fe;
        stroke-width: 0px;
      }
    </style>
  </defs>
  <polygon class="cls-1" points="112.5 935.1 212.1 935.1 212.1 659.5 112.5 589.8 112.5 935.1"/>
  <polygon class="cls-1" points="212.1 312.5 112.5 382.3 112.5 506.4 280.4 623.9 280.4 935.1 379.9 935.1 379.9 572.1 212.1 454.6 212.1 312.5"/>
  <polygon class="cls-1" points="799.6 661 379.9 367.2 379.9 181.3 547.8 298.8 547.8 177.3 330.1 24.9 112.5 177.4 112.5 298.8 280.4 181.3 280.4 419 700.1 712.8 700.1 898.8 532.2 781.2 532.2 902.7 749.6 1055.1 967.5 902.7 967.5 781.2 799.6 898.8 799.6 661"/>
  <polygon class="cls-1" points="867.9 144.9 867.9 420.5 967.5 490.2 967.5 144.9 867.9 144.9"/>
  <polygon class="cls-1" points="799.6 144.9 700.1 144.9 700.1 508 867.9 625.4 867.9 767.5 967.5 697.7 967.5 573.6 799.6 456.1 799.6 144.9"/>
</svg>