<?xml version="1.0" encoding="UTF-8"?>
<svg id="Capa_1" data-name="Capa 1" xmlns="http://www.w3.org/2000/svg" version="1.1" viewBox="0 0 1080 277">
  <defs>
    <style>
      .cls-1 {
        fill: #1d252d;
      }

      .cls-1, .cls-2 {
        stroke-width: 0px;
      }

      .cls-2 {
        fill: #0061fe;
      }
    </style>
  </defs>
  <g>
    <polygon class="cls-2" points="8.7 232.4 32.5 232.4 32.5 166.7 8.7 150 8.7 232.4"/>
    <polygon class="cls-2" points="32.5 83.8 8.7 100.5 8.7 130.1 48.8 158.2 48.8 232.4 72.6 232.4 72.6 145.8 32.5 117.7 32.5 83.8"/>
    <polygon class="cls-2" points="172.8 167 72.6 96.9 72.6 52.5 112.7 80.5 112.7 51.5 60.7 15.2 8.7 51.5 8.7 80.5 48.8 52.5 48.8 109.2 149 179.4 149 223.8 108.9 195.7 108.9 224.7 160.8 261.1 212.9 224.7 212.9 195.7 172.8 223.8 172.8 167"/>
    <polygon class="cls-2" points="189.1 43.8 189.1 109.6 212.9 126.2 212.9 43.8 189.1 43.8"/>
    <polygon class="cls-2" points="172.8 43.8 149 43.8 149 130.5 189.1 158.5 189.1 192.4 212.9 175.8 212.9 146.2 172.8 118.1 172.8 43.8"/>
  </g>
  <g>
    <polygon class="cls-1" points="364.8 125.1 305.5 125.1 305.5 69.9 277.4 69.9 277.4 204.3 305.5 204.3 305.5 147.7 364.8 147.7 364.8 204.3 392.9 204.3 392.9 69.9 364.8 69.9 364.8 125.1"/>
    <path class="cls-1" d="M461.9,69.9l-49.1,134.4h28.7l11.2-32.8h51.5l11.2,32.8h29.1l-49.1-134.4h-33.6ZM459,150.7l19.3-58.6,19.5,58.6h-38.9Z"/>
    <path class="cls-1" d="M643.3,150.1c0,11.3-2.4,19.6-7.1,25-4.7,5.4-12.1,8.1-22,8.1s-17.3-2.7-22.1-8.1c-4.8-5.4-7.2-13.8-7.2-25v-80.2h-28.1v81.4c0,18.3,4.9,32.1,14.7,41.2,9.8,9.2,24,13.7,42.8,13.7s33-4.6,42.8-13.7c9.8-9.2,14.7-22.9,14.7-41.2v-81.4h-28.3v80.2Z"/>
    <polygon class="cls-1" points="732.1 69.9 704 69.9 704 204.3 802.9 204.3 802.9 181.7 732.1 181.7 732.1 69.9"/>
    <polygon class="cls-1" points="854.4 147.5 911.6 147.5 911.6 125.9 854.4 125.9 854.4 92.5 927.1 92.5 927.1 69.9 826.3 69.9 826.3 204.3 930 204.3 930 181.7 854.4 181.7 854.4 147.5"/>
    <path class="cls-1" d="M1071.2,204.3l-36.3-55.8c5.9-1.7,11-4.4,15.3-7.8,8.7-7,13-17.1,13-30.2s-4.3-22.2-13-29.5c-8.7-7.3-20.6-11-35.8-11h-59.2v134.4h27.7v-51.5h25.3l31.6,51.5h31.6ZM982.9,92.3h28.3c7.9,0,13.7,1.6,17.6,4.8,3.9,3.2,5.8,8.1,5.8,14.8s-1.9,11.6-5.8,14.8c-3.9,3.2-9.7,4.8-17.6,4.8h-28.3v-39.1Z"/>
  </g>
</svg>